<svg xmlns="http://www.w3.org/2000/svg" xmlns:xlink="http://www.w3.org/1999/xlink" width="500" zoomAndPan="magnify" viewBox="0 0 375 374.999991" height="500" preserveAspectRatio="xMidYMid meet" version="1.0"><defs><g/><clipPath id="ee70f31bee"><path d="M 102 214 L 248.828125 214 L 248.828125 266 L 102 266 Z M 102 214 " clip-rule="nonzero"/></clipPath></defs><path fill="#936400" d="M 179.777344 278.796875 C 182.398438 278.015625 184.949219 277.121094 187.433594 276.121094 C 144.441406 284.628906 101.253906 259.152344 88.527344 216.300781 C 75.804688 173.449219 98.089844 128.527344 138.753906 112.191406 C 136.125 112.710938 133.496094 113.351562 130.878906 114.128906 C 85.40625 127.632812 59.492188 175.441406 72.996094 220.914062 C 86.496094 266.382812 134.304688 292.296875 179.777344 278.796875 " fill-opacity="1" fill-rule="nonzero"/><path fill="#eab308" d="M 73.359375 256.996094 C 75.640625 258.785156 77.980469 260.441406 80.371094 261.976562 C 46.648438 230.035156 42.179688 177.078125 71.410156 139.796875 C 100.644531 102.515625 153.140625 94.222656 192.203125 119.351562 C 190.140625 117.398438 187.976562 115.519531 185.695312 113.734375 C 146.136719 82.714844 88.917969 89.636719 57.898438 129.199219 C 26.878906 168.757812 33.800781 225.976562 73.359375 256.996094 " fill-opacity="1" fill-rule="nonzero"/><g clip-path="url(#ee70f31bee)"><path fill="#eab308" d="M 158.007812 252.839844 C 134.546875 246.53125 115.25 232.464844 102.128906 214.148438 C 112.472656 236.992188 132.582031 255.195312 158.691406 262.210938 C 192.792969 271.378906 227.613281 258.902344 248.5625 233.191406 C 224.199219 253.265625 190.816406 261.65625 158.007812 252.839844 " fill-opacity="1" fill-rule="nonzero"/></g><g fill="#936400" fill-opacity="1"><g transform="translate(118.96376, 205.902796)"><g><path d="M 33.25 -31.125 L 22.171875 -31.125 L 16.78125 0 L 9.265625 0 L 14.65625 -31.125 L 3.6875 -31.125 L 4.796875 -37.359375 L 34.359375 -37.359375 Z M 33.25 -31.125 "/></g></g></g><g fill="#936400" fill-opacity="1"><g transform="translate(148.276296, 205.902796)"><g><path d="M 19.09375 -20.8125 C 18.09375 -20.976562 17.28125 -21.0625 16.65625 -21.0625 C 14.070312 -21.132812 12.023438 -20.171875 10.515625 -18.171875 L 7.3125 0 L 0.078125 0 L 4.90625 -27.765625 L 11.703125 -27.78125 L 11.03125 -24.40625 C 12.78125 -27.019531 14.9375 -28.328125 17.5 -28.328125 C 18.21875 -28.328125 19.054688 -28.207031 20.015625 -27.96875 Z M 19.09375 -20.8125 "/></g></g></g><g fill="#936400" fill-opacity="1"><g transform="translate(164.660445, 205.902796)"><g><path d="M 16.140625 0 C 15.921875 -0.695312 15.828125 -1.535156 15.859375 -2.515625 C 13.765625 -0.429688 11.40625 0.578125 8.78125 0.515625 C 6.34375 0.484375 4.320312 -0.304688 2.71875 -1.859375 C 1.125 -3.410156 0.378906 -5.320312 0.484375 -7.59375 C 0.609375 -10.625 1.878906 -12.945312 4.296875 -14.5625 C 6.710938 -16.175781 9.957031 -16.984375 14.03125 -16.984375 L 17.421875 -16.9375 L 17.78125 -18.609375 C 17.882812 -19.171875 17.910156 -19.707031 17.859375 -20.21875 C 17.773438 -21.019531 17.472656 -21.644531 16.953125 -22.09375 C 16.429688 -22.550781 15.738281 -22.789062 14.875 -22.8125 C 13.75 -22.84375 12.789062 -22.5625 12 -21.96875 C 11.21875 -21.382812 10.71875 -20.535156 10.5 -19.421875 L 3.234375 -19.390625 C 3.347656 -22.046875 4.5625 -24.195312 6.875 -25.84375 C 9.195312 -27.5 12.0625 -28.3125 15.46875 -28.28125 C 18.613281 -28.207031 21.078125 -27.269531 22.859375 -25.46875 C 24.640625 -23.664062 25.382812 -21.34375 25.09375 -18.5 L 22.96875 -5.203125 L 22.828125 -3.5625 C 22.796875 -2.351562 22.941406 -1.328125 23.265625 -0.484375 L 23.25 0 Z M 10.578125 -5.109375 C 12.660156 -5.035156 14.476562 -5.941406 16.03125 -7.828125 L 16.9375 -12.625 L 14.421875 -12.65625 C 11.753906 -12.582031 9.828125 -11.769531 8.640625 -10.21875 C 8.210938 -9.644531 7.945312 -8.953125 7.84375 -8.140625 C 7.707031 -7.210938 7.898438 -6.476562 8.421875 -5.9375 C 8.953125 -5.394531 9.671875 -5.117188 10.578125 -5.109375 Z M 10.578125 -5.109375 "/></g></g></g><g fill="#eab308" fill-opacity="1"><g transform="translate(187.960377, 204.882335)"><g><path d="M 15.546875 -9.34375 L 28.125 -37.359375 L 36.734375 -37.359375 L 18.296875 0 L 10.4375 0 L 3.71875 -37.359375 L 11.796875 -37.359375 Z M 15.546875 -9.34375 "/></g></g></g><g fill="#eab308" fill-opacity="1"><g transform="translate(219.069007, 204.882335)"><g><path d="M 13.265625 0.515625 C 10.835938 0.492188 8.6875 -0.0976562 6.8125 -1.265625 C 4.9375 -2.441406 3.535156 -4.050781 2.609375 -6.09375 C 1.691406 -8.132812 1.335938 -10.390625 1.546875 -12.859375 L 1.609375 -13.875 C 1.867188 -16.582031 2.65625 -19.0625 3.96875 -21.3125 C 5.289062 -23.570312 6.984375 -25.3125 9.046875 -26.53125 C 11.117188 -27.757812 13.414062 -28.34375 15.9375 -28.28125 C 19.507812 -28.207031 22.210938 -26.890625 24.046875 -24.328125 C 25.890625 -21.773438 26.585938 -18.539062 26.140625 -14.625 L 25.734375 -11.46875 L 8.71875 -11.46875 C 8.65625 -9.675781 9.09375 -8.238281 10.03125 -7.15625 C 10.96875 -6.082031 12.25 -5.523438 13.875 -5.484375 C 16.507812 -5.421875 18.820312 -6.441406 20.8125 -8.546875 L 24.125 -4.4375 C 23.070312 -2.863281 21.5625 -1.632812 19.59375 -0.75 C 17.632812 0.125 15.523438 0.546875 13.265625 0.515625 Z M 15.578125 -22.296875 C 14.242188 -22.328125 13.054688 -21.90625 12.015625 -21.03125 C 10.984375 -20.164062 10.054688 -18.65625 9.234375 -16.5 L 19.1875 -16.5 L 19.34375 -17.171875 C 19.445312 -17.847656 19.457031 -18.492188 19.375 -19.109375 C 19.195312 -20.109375 18.773438 -20.882812 18.109375 -21.4375 C 17.441406 -21.988281 16.597656 -22.273438 15.578125 -22.296875 Z M 15.578125 -22.296875 "/></g></g></g><g fill="#eab308" fill-opacity="1"><g transform="translate(244.405947, 204.882335)"><g><path d="M 7.71875 0 L 0.4375 0 L 7.28125 -39.40625 L 14.546875 -39.40625 Z M 7.71875 0 "/></g></g></g><g fill="#eab308" fill-opacity="1"><g transform="translate(255.711284, 204.882335)"><g><path d="M 7.71875 0 L 0.4375 0 L 5.265625 -27.765625 L 12.546875 -27.765625 Z M 6.109375 -34.8125 C 6.078125 -35.957031 6.453125 -36.90625 7.234375 -37.65625 C 8.023438 -38.414062 8.972656 -38.796875 10.078125 -38.796875 C 11.171875 -38.828125 12.117188 -38.488281 12.921875 -37.78125 C 13.734375 -37.082031 14.15625 -36.179688 14.1875 -35.078125 C 14.21875 -34.015625 13.859375 -33.085938 13.109375 -32.296875 C 12.367188 -31.515625 11.40625 -31.109375 10.21875 -31.078125 C 9.132812 -31.035156 8.1875 -31.359375 7.375 -32.046875 C 6.5625 -32.734375 6.140625 -33.65625 6.109375 -34.8125 Z M 6.109375 -34.8125 "/></g></g></g><g fill="#eab308" fill-opacity="1"><g transform="translate(267.016627, 204.882335)"><g><path d="M 13.4375 -19.53125 L 19.265625 -27.765625 L 27.40625 -27.765625 L 17.34375 -13.796875 L 22.96875 0 L 15.625 0 L 12.21875 -8.671875 L 6.078125 0 L -2.109375 0 L 8.359375 -14.515625 L 3 -27.765625 L 10.34375 -27.765625 Z M 13.4375 -19.53125 "/></g></g></g><g fill="#936400" fill-opacity="1"><g transform="translate(130.53051, 224.443989)"><g><path d="M 1.375 0 L 1.375 -12.125 L 3.078125 -12.125 L 3.078125 -6.96875 L 9.4375 -6.96875 L 9.4375 -12.125 L 11.140625 -12.125 L 11.140625 0 L 9.4375 0 L 9.4375 -5.5 L 3.078125 -5.5 L 3.078125 0 Z M 1.375 0 "/></g></g></g><g fill="#936400" fill-opacity="1"><g transform="translate(143.047576, 224.443989)"><g><path d="M 5 0.21875 C 4.488281 0.21875 3.976562 0.128906 3.46875 -0.046875 C 2.957031 -0.234375 2.492188 -0.515625 2.078125 -0.890625 C 1.660156 -1.273438 1.320312 -1.765625 1.0625 -2.359375 C 0.8125 -2.953125 0.6875 -3.65625 0.6875 -4.46875 C 0.6875 -5.269531 0.8125 -5.96875 1.0625 -6.5625 C 1.320312 -7.15625 1.660156 -7.640625 2.078125 -8.015625 C 2.492188 -8.398438 2.957031 -8.679688 3.46875 -8.859375 C 3.976562 -9.046875 4.488281 -9.140625 5 -9.140625 C 5.519531 -9.140625 6.035156 -9.046875 6.546875 -8.859375 C 7.066406 -8.679688 7.535156 -8.398438 7.953125 -8.015625 C 8.367188 -7.640625 8.703125 -7.15625 8.953125 -6.5625 C 9.203125 -5.96875 9.328125 -5.269531 9.328125 -4.46875 C 9.328125 -3.65625 9.203125 -2.953125 8.953125 -2.359375 C 8.703125 -1.765625 8.367188 -1.273438 7.953125 -0.890625 C 7.535156 -0.515625 7.066406 -0.234375 6.546875 -0.046875 C 6.035156 0.128906 5.519531 0.21875 5 0.21875 Z M 5 -1.125 C 5.4375 -1.125 5.859375 -1.238281 6.265625 -1.46875 C 6.679688 -1.707031 7.019531 -2.070312 7.28125 -2.5625 C 7.550781 -3.050781 7.6875 -3.6875 7.6875 -4.46875 C 7.6875 -5.238281 7.550781 -5.867188 7.28125 -6.359375 C 7.019531 -6.847656 6.679688 -7.207031 6.265625 -7.4375 C 5.859375 -7.675781 5.4375 -7.796875 5 -7.796875 C 4.582031 -7.796875 4.164062 -7.675781 3.75 -7.4375 C 3.332031 -7.207031 2.988281 -6.847656 2.71875 -6.359375 C 2.457031 -5.867188 2.328125 -5.238281 2.328125 -4.46875 C 2.328125 -3.6875 2.457031 -3.050781 2.71875 -2.5625 C 2.988281 -2.070312 3.332031 -1.707031 3.75 -1.46875 C 4.164062 -1.238281 4.582031 -1.125 5 -1.125 Z M 5 -1.125 "/></g></g></g><g fill="#936400" fill-opacity="1"><g transform="translate(153.061224, 224.443989)"><g><path d="M 4.015625 0 C 3.441406 0 3 -0.0546875 2.6875 -0.171875 C 2.382812 -0.285156 2.175781 -0.503906 2.0625 -0.828125 C 1.945312 -1.160156 1.890625 -1.632812 1.890625 -2.25 L 1.890625 -7.78125 L 0.359375 -7.78125 L 0.359375 -9 L 1.890625 -9 L 1.890625 -11.265625 L 3.40625 -11.265625 L 3.40625 -9 L 5.15625 -9 L 5.15625 -7.78125 L 3.40625 -7.78125 L 3.40625 -2.5 C 3.40625 -2.039062 3.453125 -1.734375 3.546875 -1.578125 C 3.640625 -1.421875 3.898438 -1.34375 4.328125 -1.34375 L 5.15625 -1.34375 L 5.15625 0 Z M 4.015625 0 "/></g></g></g><g fill="#936400" fill-opacity="1"><g transform="translate(158.938806, 224.443989)"><g><path d="M 5.09375 0.21875 C 4.15625 0.21875 3.359375 0.0078125 2.703125 -0.40625 C 2.046875 -0.820312 1.546875 -1.382812 1.203125 -2.09375 C 0.859375 -2.800781 0.6875 -3.597656 0.6875 -4.484375 C 0.6875 -5.429688 0.878906 -6.253906 1.265625 -6.953125 C 1.648438 -7.648438 2.171875 -8.1875 2.828125 -8.5625 C 3.492188 -8.945312 4.238281 -9.140625 5.0625 -9.140625 C 5.769531 -9.140625 6.394531 -9 6.9375 -8.71875 C 7.488281 -8.4375 7.941406 -8.054688 8.296875 -7.578125 C 8.648438 -7.097656 8.910156 -6.554688 9.078125 -5.953125 C 9.242188 -5.347656 9.300781 -4.722656 9.25 -4.078125 L 2.328125 -4.078125 C 2.347656 -3.328125 2.507812 -2.734375 2.8125 -2.296875 C 3.125 -1.867188 3.488281 -1.566406 3.90625 -1.390625 C 4.332031 -1.210938 4.726562 -1.125 5.09375 -1.125 C 5.601562 -1.125 6.03125 -1.203125 6.375 -1.359375 C 6.71875 -1.523438 6.992188 -1.742188 7.203125 -2.015625 L 8.671875 -1.578125 C 8.347656 -1.054688 7.882812 -0.625 7.28125 -0.28125 C 6.675781 0.0507812 5.945312 0.21875 5.09375 0.21875 Z M 2.34375 -5.296875 L 7.640625 -5.296875 C 7.640625 -5.722656 7.53125 -6.128906 7.3125 -6.515625 C 7.101562 -6.898438 6.804688 -7.21875 6.421875 -7.46875 C 6.046875 -7.71875 5.59375 -7.84375 5.0625 -7.84375 C 4.613281 -7.84375 4.1875 -7.753906 3.78125 -7.578125 C 3.382812 -7.410156 3.054688 -7.140625 2.796875 -6.765625 C 2.535156 -6.390625 2.382812 -5.898438 2.34375 -5.296875 Z M 2.34375 -5.296875 "/></g></g></g><g fill="#936400" fill-opacity="1"><g transform="translate(168.716626, 224.443989)"><g><path d="M 3.390625 0 C 2.828125 0 2.390625 -0.0546875 2.078125 -0.171875 C 1.765625 -0.285156 1.550781 -0.503906 1.4375 -0.828125 C 1.320312 -1.160156 1.265625 -1.632812 1.265625 -2.25 L 1.265625 -12.09375 L 2.796875 -12.09375 L 2.796875 -2.5 C 2.796875 -2.039062 2.84375 -1.734375 2.9375 -1.578125 C 3.03125 -1.421875 3.289062 -1.34375 3.71875 -1.34375 L 4.0625 -1.34375 L 4.0625 0 Z M 3.390625 0 "/></g></g></g><g fill="#936400" fill-opacity="1"><g transform="translate(173.052243, 224.443989)"><g/></g></g><g fill="#936400" fill-opacity="1"><g transform="translate(178.131634, 224.443989)"><g><path d="M 4.765625 0.21875 C 3.929688 0.21875 3.207031 0.0625 2.59375 -0.25 C 1.988281 -0.5625 1.519531 -0.984375 1.1875 -1.515625 C 0.851562 -2.054688 0.6875 -2.65625 0.6875 -3.3125 C 0.6875 -4.25 0.96875 -5.019531 1.53125 -5.625 C 2.101562 -6.238281 2.859375 -6.703125 3.796875 -7.015625 C 3.378906 -7.472656 3.050781 -7.925781 2.8125 -8.375 C 2.570312 -8.820312 2.453125 -9.285156 2.453125 -9.765625 C 2.453125 -10.546875 2.757812 -11.164062 3.375 -11.625 C 4 -12.09375 4.789062 -12.328125 5.75 -12.328125 C 6.25 -12.328125 6.738281 -12.242188 7.21875 -12.078125 C 7.707031 -11.921875 8.109375 -11.648438 8.421875 -11.265625 C 8.742188 -10.890625 8.90625 -10.375 8.90625 -9.71875 C 8.90625 -8.957031 8.664062 -8.320312 8.1875 -7.8125 C 7.71875 -7.3125 7.113281 -6.898438 6.375 -6.578125 L 8.828125 -3.96875 C 8.984375 -4.34375 9.113281 -4.742188 9.21875 -5.171875 C 9.332031 -5.609375 9.410156 -6.066406 9.453125 -6.546875 L 11.03125 -6.546875 C 10.976562 -5.890625 10.859375 -5.242188 10.671875 -4.609375 C 10.484375 -3.984375 10.226562 -3.394531 9.90625 -2.84375 L 12.609375 0 L 10.453125 0 L 8.96875 -1.578125 C 8.445312 -1.023438 7.832031 -0.585938 7.125 -0.265625 C 6.425781 0.0546875 5.640625 0.21875 4.765625 0.21875 Z M 5.4375 -7.53125 C 6.03125 -7.75 6.507812 -8.03125 6.875 -8.375 C 7.238281 -8.726562 7.421875 -9.144531 7.421875 -9.625 C 7.421875 -10.125 7.257812 -10.476562 6.9375 -10.6875 C 6.613281 -10.894531 6.226562 -11 5.78125 -11 C 5.332031 -11 4.9375 -10.898438 4.59375 -10.703125 C 4.25 -10.503906 4.078125 -10.203125 4.078125 -9.796875 C 4.078125 -9.472656 4.175781 -9.148438 4.375 -8.828125 C 4.582031 -8.503906 4.796875 -8.226562 5.015625 -8 C 5.234375 -7.769531 5.375 -7.613281 5.4375 -7.53125 Z M 4.765625 -1.125 C 5.410156 -1.125 6.003906 -1.25 6.546875 -1.5 C 7.085938 -1.757812 7.566406 -2.125 7.984375 -2.59375 L 4.703125 -6.0625 C 3.972656 -5.800781 3.394531 -5.457031 2.96875 -5.03125 C 2.539062 -4.613281 2.328125 -4.066406 2.328125 -3.390625 C 2.328125 -2.929688 2.441406 -2.53125 2.671875 -2.1875 C 2.898438 -1.84375 3.203125 -1.578125 3.578125 -1.390625 C 3.953125 -1.210938 4.347656 -1.125 4.765625 -1.125 Z M 4.765625 -1.125 "/></g></g></g><g fill="#936400" fill-opacity="1"><g transform="translate(190.920806, 224.443989)"><g/></g></g><g fill="#936400" fill-opacity="1"><g transform="translate(196.000198, 224.443989)"><g><path d="M 1.375 -0.015625 L 1.375 -12.125 L 5.171875 -12.125 C 6.160156 -12.125 7.03125 -12.023438 7.78125 -11.828125 C 8.539062 -11.628906 9.132812 -11.265625 9.5625 -10.734375 C 10 -10.210938 10.21875 -9.453125 10.21875 -8.453125 C 10.21875 -7.460938 10 -6.703125 9.5625 -6.171875 C 9.132812 -5.648438 8.539062 -5.296875 7.78125 -5.109375 C 7.03125 -4.921875 6.160156 -4.828125 5.171875 -4.828125 L 3.078125 -4.828125 L 3.078125 -0.015625 Z M 3.078125 -6.296875 L 5.3125 -6.296875 C 5.90625 -6.296875 6.4375 -6.335938 6.90625 -6.421875 C 7.382812 -6.503906 7.765625 -6.695312 8.046875 -7 C 8.328125 -7.3125 8.46875 -7.796875 8.46875 -8.453125 C 8.46875 -9.117188 8.328125 -9.609375 8.046875 -9.921875 C 7.765625 -10.234375 7.382812 -10.4375 6.90625 -10.53125 C 6.4375 -10.632812 5.90625 -10.6875 5.3125 -10.6875 L 3.078125 -10.6875 Z M 3.078125 -6.296875 "/></g></g></g><g fill="#936400" fill-opacity="1"><g transform="translate(206.902743, 224.443989)"><g><path d="M 5.09375 0.21875 C 4.15625 0.21875 3.359375 0.0078125 2.703125 -0.40625 C 2.046875 -0.820312 1.546875 -1.382812 1.203125 -2.09375 C 0.859375 -2.800781 0.6875 -3.597656 0.6875 -4.484375 C 0.6875 -5.429688 0.878906 -6.253906 1.265625 -6.953125 C 1.648438 -7.648438 2.171875 -8.1875 2.828125 -8.5625 C 3.492188 -8.945312 4.238281 -9.140625 5.0625 -9.140625 C 5.769531 -9.140625 6.394531 -9 6.9375 -8.71875 C 7.488281 -8.4375 7.941406 -8.054688 8.296875 -7.578125 C 8.648438 -7.097656 8.910156 -6.554688 9.078125 -5.953125 C 9.242188 -5.347656 9.300781 -4.722656 9.25 -4.078125 L 2.328125 -4.078125 C 2.347656 -3.328125 2.507812 -2.734375 2.8125 -2.296875 C 3.125 -1.867188 3.488281 -1.566406 3.90625 -1.390625 C 4.332031 -1.210938 4.726562 -1.125 5.09375 -1.125 C 5.601562 -1.125 6.03125 -1.203125 6.375 -1.359375 C 6.71875 -1.523438 6.992188 -1.742188 7.203125 -2.015625 L 8.671875 -1.578125 C 8.347656 -1.054688 7.882812 -0.625 7.28125 -0.28125 C 6.675781 0.0507812 5.945312 0.21875 5.09375 0.21875 Z M 2.34375 -5.296875 L 7.640625 -5.296875 C 7.640625 -5.722656 7.53125 -6.128906 7.3125 -6.515625 C 7.101562 -6.898438 6.804688 -7.21875 6.421875 -7.46875 C 6.046875 -7.71875 5.59375 -7.84375 5.0625 -7.84375 C 4.613281 -7.84375 4.1875 -7.753906 3.78125 -7.578125 C 3.382812 -7.410156 3.054688 -7.140625 2.796875 -6.765625 C 2.535156 -6.390625 2.382812 -5.898438 2.34375 -5.296875 Z M 2.34375 -5.296875 "/></g></g></g><g fill="#936400" fill-opacity="1"><g transform="translate(216.680563, 224.443989)"><g><path d="M 1.265625 0 L 1.265625 -9 L 2.390625 -9 L 2.796875 -7.640625 C 3.046875 -8.054688 3.398438 -8.410156 3.859375 -8.703125 C 4.316406 -8.992188 4.929688 -9.140625 5.703125 -9.140625 C 6.785156 -9.140625 7.550781 -8.820312 8 -8.1875 C 8.445312 -7.550781 8.671875 -6.722656 8.671875 -5.703125 L 8.671875 0 L 7.140625 0 L 7.140625 -5.25 C 7.140625 -5.707031 7.097656 -6.128906 7.015625 -6.515625 C 6.929688 -6.910156 6.75 -7.226562 6.46875 -7.46875 C 6.1875 -7.71875 5.753906 -7.84375 5.171875 -7.84375 C 4.429688 -7.84375 3.847656 -7.585938 3.421875 -7.078125 C 3.003906 -6.578125 2.796875 -5.84375 2.796875 -4.875 L 2.796875 0 Z M 1.265625 0 "/></g></g></g><g fill="#936400" fill-opacity="1"><g transform="translate(226.585366, 224.443989)"><g><path d="M 5.09375 0.21875 C 4.15625 0.21875 3.359375 0.0078125 2.703125 -0.40625 C 2.046875 -0.820312 1.546875 -1.382812 1.203125 -2.09375 C 0.859375 -2.800781 0.6875 -3.597656 0.6875 -4.484375 C 0.6875 -5.429688 0.878906 -6.253906 1.265625 -6.953125 C 1.648438 -7.648438 2.171875 -8.1875 2.828125 -8.5625 C 3.492188 -8.945312 4.238281 -9.140625 5.0625 -9.140625 C 5.769531 -9.140625 6.394531 -9 6.9375 -8.71875 C 7.488281 -8.4375 7.941406 -8.054688 8.296875 -7.578125 C 8.648438 -7.097656 8.910156 -6.554688 9.078125 -5.953125 C 9.242188 -5.347656 9.300781 -4.722656 9.25 -4.078125 L 2.328125 -4.078125 C 2.347656 -3.328125 2.507812 -2.734375 2.8125 -2.296875 C 3.125 -1.867188 3.488281 -1.566406 3.90625 -1.390625 C 4.332031 -1.210938 4.726562 -1.125 5.09375 -1.125 C 5.601562 -1.125 6.03125 -1.203125 6.375 -1.359375 C 6.71875 -1.523438 6.992188 -1.742188 7.203125 -2.015625 L 8.671875 -1.578125 C 8.347656 -1.054688 7.882812 -0.625 7.28125 -0.28125 C 6.675781 0.0507812 5.945312 0.21875 5.09375 0.21875 Z M 2.34375 -5.296875 L 7.640625 -5.296875 C 7.640625 -5.722656 7.53125 -6.128906 7.3125 -6.515625 C 7.101562 -6.898438 6.804688 -7.21875 6.421875 -7.46875 C 6.046875 -7.71875 5.59375 -7.84375 5.0625 -7.84375 C 4.613281 -7.84375 4.1875 -7.753906 3.78125 -7.578125 C 3.382812 -7.410156 3.054688 -7.140625 2.796875 -6.765625 C 2.535156 -6.390625 2.382812 -5.898438 2.34375 -5.296875 Z M 2.34375 -5.296875 "/></g></g></g><g fill="#936400" fill-opacity="1"><g transform="translate(236.363186, 224.443989)"><g><path d="M 1.265625 0 L 1.265625 -9 L 2.375 -9 L 2.859375 -7.328125 C 3.179688 -7.867188 3.609375 -8.304688 4.140625 -8.640625 C 4.679688 -8.972656 5.328125 -9.140625 6.078125 -9.140625 L 6.078125 -7.5625 C 5.992188 -7.5625 5.90625 -7.5625 5.8125 -7.5625 C 5.71875 -7.5625 5.628906 -7.554688 5.546875 -7.546875 C 4.523438 -7.460938 3.8125 -7.101562 3.40625 -6.46875 C 3 -5.84375 2.796875 -4.972656 2.796875 -3.859375 L 2.796875 0 Z M 1.265625 0 "/></g></g></g><g fill="#936400" fill-opacity="1"><g transform="translate(242.531013, 224.443989)"><g><path d="M 5.71875 0.21875 C 5.007812 0.21875 4.410156 0.078125 3.921875 -0.203125 C 3.441406 -0.492188 3.066406 -0.878906 2.796875 -1.359375 L 2.390625 0 L 1.265625 0 L 1.265625 -12.125 L 2.796875 -12.125 L 2.796875 -7.578125 C 3.066406 -8.054688 3.441406 -8.4375 3.921875 -8.71875 C 4.410156 -9 5.007812 -9.140625 5.71875 -9.140625 C 6.40625 -9.140625 7.039062 -8.953125 7.625 -8.578125 C 8.21875 -8.210938 8.691406 -7.679688 9.046875 -6.984375 C 9.398438 -6.296875 9.578125 -5.457031 9.578125 -4.46875 C 9.578125 -3.46875 9.398438 -2.617188 9.046875 -1.921875 C 8.691406 -1.234375 8.21875 -0.703125 7.625 -0.328125 C 7.039062 0.0351562 6.40625 0.21875 5.71875 0.21875 Z M 5.3125 -1.09375 C 6.082031 -1.09375 6.703125 -1.382812 7.171875 -1.96875 C 7.640625 -2.5625 7.875 -3.394531 7.875 -4.46875 C 7.875 -5.539062 7.640625 -6.367188 7.171875 -6.953125 C 6.703125 -7.546875 6.082031 -7.84375 5.3125 -7.84375 C 4.539062 -7.84375 3.921875 -7.546875 3.453125 -6.953125 C 2.984375 -6.367188 2.75 -5.539062 2.75 -4.46875 C 2.75 -3.394531 2.984375 -2.5625 3.453125 -1.96875 C 3.921875 -1.382812 4.539062 -1.09375 5.3125 -1.09375 Z M 5.3125 -1.09375 "/></g></g></g><g fill="#936400" fill-opacity="1"><g transform="translate(252.798629, 224.443989)"><g><path d="M 3.796875 0.21875 C 3.222656 0.21875 2.703125 0.113281 2.234375 -0.09375 C 1.765625 -0.300781 1.390625 -0.597656 1.109375 -0.984375 C 0.828125 -1.367188 0.6875 -1.832031 0.6875 -2.375 C 0.6875 -3.09375 0.9375 -3.65625 1.4375 -4.0625 C 1.9375 -4.476562 2.644531 -4.796875 3.5625 -5.015625 C 4.476562 -5.234375 5.546875 -5.410156 6.765625 -5.546875 C 6.785156 -6.304688 6.632812 -6.890625 6.3125 -7.296875 C 5.988281 -7.710938 5.460938 -7.921875 4.734375 -7.921875 C 4.191406 -7.921875 3.75 -7.796875 3.40625 -7.546875 C 3.0625 -7.304688 2.835938 -6.96875 2.734375 -6.53125 L 1.265625 -6.96875 C 1.503906 -7.65625 1.9375 -8.1875 2.5625 -8.5625 C 3.1875 -8.945312 3.90625 -9.140625 4.71875 -9.140625 C 5.957031 -9.140625 6.863281 -8.847656 7.4375 -8.265625 C 8.019531 -7.679688 8.3125 -6.757812 8.3125 -5.5 L 8.3125 -3.390625 C 8.3125 -2.640625 8.335938 -1.992188 8.390625 -1.453125 C 8.453125 -0.910156 8.523438 -0.425781 8.609375 0 L 7.21875 0 L 6.859375 -1.234375 C 6.585938 -0.785156 6.203125 -0.429688 5.703125 -0.171875 C 5.210938 0.0859375 4.578125 0.21875 3.796875 0.21875 Z M 4.125 -1 C 4.59375 -1 5.035156 -1.082031 5.453125 -1.25 C 5.878906 -1.414062 6.222656 -1.703125 6.484375 -2.109375 C 6.753906 -2.515625 6.890625 -3.066406 6.890625 -3.765625 L 6.890625 -4.328125 C 5.972656 -4.234375 5.175781 -4.113281 4.5 -3.96875 C 3.820312 -3.832031 3.296875 -3.640625 2.921875 -3.390625 C 2.554688 -3.148438 2.375 -2.820312 2.375 -2.40625 C 2.375 -1.988281 2.523438 -1.648438 2.828125 -1.390625 C 3.140625 -1.128906 3.570312 -1 4.125 -1 Z M 4.125 -1 "/></g></g></g><g fill="#936400" fill-opacity="1"><g transform="translate(262.340621, 224.443989)"><g><path d="M 1.265625 0 L 1.265625 -9 L 2.390625 -9 L 2.796875 -7.640625 C 3.046875 -8.054688 3.398438 -8.410156 3.859375 -8.703125 C 4.316406 -8.992188 4.929688 -9.140625 5.703125 -9.140625 C 6.785156 -9.140625 7.550781 -8.820312 8 -8.1875 C 8.445312 -7.550781 8.671875 -6.722656 8.671875 -5.703125 L 8.671875 0 L 7.140625 0 L 7.140625 -5.25 C 7.140625 -5.707031 7.097656 -6.128906 7.015625 -6.515625 C 6.929688 -6.910156 6.75 -7.226562 6.46875 -7.46875 C 6.1875 -7.71875 5.753906 -7.84375 5.171875 -7.84375 C 4.429688 -7.84375 3.847656 -7.585938 3.421875 -7.078125 C 3.003906 -6.578125 2.796875 -5.84375 2.796875 -4.875 L 2.796875 0 Z M 1.265625 0 "/></g></g></g><g fill="#936400" fill-opacity="1"><g transform="translate(272.245424, 224.443989)"><g><path d="M 4.96875 3.484375 C 4.488281 3.484375 4.007812 3.410156 3.53125 3.265625 C 3.050781 3.128906 2.625 2.90625 2.25 2.59375 C 1.882812 2.28125 1.625 1.875 1.46875 1.375 L 3 0.96875 C 3.164062 1.4375 3.441406 1.75 3.828125 1.90625 C 4.210938 2.0625 4.59375 2.140625 4.96875 2.140625 C 5.90625 2.140625 6.535156 1.914062 6.859375 1.46875 C 7.191406 1.019531 7.359375 0.359375 7.359375 -0.515625 L 7.359375 -1.703125 C 7.085938 -1.234375 6.71875 -0.859375 6.25 -0.578125 C 5.789062 -0.296875 5.207031 -0.15625 4.5 -0.15625 C 3.832031 -0.15625 3.207031 -0.328125 2.625 -0.671875 C 2.050781 -1.023438 1.582031 -1.535156 1.21875 -2.203125 C 0.863281 -2.867188 0.6875 -3.679688 0.6875 -4.640625 C 0.6875 -5.609375 0.863281 -6.425781 1.21875 -7.09375 C 1.582031 -7.757812 2.050781 -8.265625 2.625 -8.609375 C 3.207031 -8.960938 3.832031 -9.140625 4.5 -9.140625 C 5.207031 -9.140625 5.789062 -9 6.25 -8.71875 C 6.71875 -8.4375 7.085938 -8.054688 7.359375 -7.578125 L 7.78125 -9 L 8.890625 -9 L 8.890625 -0.859375 C 8.890625 0.566406 8.601562 1.644531 8.03125 2.375 C 7.457031 3.113281 6.4375 3.484375 4.96875 3.484375 Z M 4.875 -1.4375 C 5.332031 -1.4375 5.753906 -1.546875 6.140625 -1.765625 C 6.523438 -1.984375 6.832031 -2.328125 7.0625 -2.796875 C 7.300781 -3.265625 7.421875 -3.878906 7.421875 -4.640625 C 7.421875 -5.398438 7.300781 -6.015625 7.0625 -6.484375 C 6.832031 -6.960938 6.523438 -7.304688 6.140625 -7.515625 C 5.753906 -7.734375 5.332031 -7.84375 4.875 -7.84375 C 4.132812 -7.84375 3.523438 -7.566406 3.046875 -7.015625 C 2.578125 -6.460938 2.34375 -5.671875 2.34375 -4.640625 C 2.34375 -3.617188 2.578125 -2.828125 3.046875 -2.265625 C 3.523438 -1.710938 4.132812 -1.4375 4.875 -1.4375 Z M 4.875 -1.4375 "/></g></g></g><g fill="#936400" fill-opacity="1"><g transform="translate(282.404206, 224.443989)"><g><path d="M 3.796875 0.21875 C 3.222656 0.21875 2.703125 0.113281 2.234375 -0.09375 C 1.765625 -0.300781 1.390625 -0.597656 1.109375 -0.984375 C 0.828125 -1.367188 0.6875 -1.832031 0.6875 -2.375 C 0.6875 -3.09375 0.9375 -3.65625 1.4375 -4.0625 C 1.9375 -4.476562 2.644531 -4.796875 3.5625 -5.015625 C 4.476562 -5.234375 5.546875 -5.410156 6.765625 -5.546875 C 6.785156 -6.304688 6.632812 -6.890625 6.3125 -7.296875 C 5.988281 -7.710938 5.460938 -7.921875 4.734375 -7.921875 C 4.191406 -7.921875 3.75 -7.796875 3.40625 -7.546875 C 3.0625 -7.304688 2.835938 -6.96875 2.734375 -6.53125 L 1.265625 -6.96875 C 1.503906 -7.65625 1.9375 -8.1875 2.5625 -8.5625 C 3.1875 -8.945312 3.90625 -9.140625 4.71875 -9.140625 C 5.957031 -9.140625 6.863281 -8.847656 7.4375 -8.265625 C 8.019531 -7.679688 8.3125 -6.757812 8.3125 -5.5 L 8.3125 -3.390625 C 8.3125 -2.640625 8.335938 -1.992188 8.390625 -1.453125 C 8.453125 -0.910156 8.523438 -0.425781 8.609375 0 L 7.21875 0 L 6.859375 -1.234375 C 6.585938 -0.785156 6.203125 -0.429688 5.703125 -0.171875 C 5.210938 0.0859375 4.578125 0.21875 3.796875 0.21875 Z M 4.125 -1 C 4.59375 -1 5.035156 -1.082031 5.453125 -1.25 C 5.878906 -1.414062 6.222656 -1.703125 6.484375 -2.109375 C 6.753906 -2.515625 6.890625 -3.066406 6.890625 -3.765625 L 6.890625 -4.328125 C 5.972656 -4.234375 5.175781 -4.113281 4.5 -3.96875 C 3.820312 -3.832031 3.296875 -3.640625 2.921875 -3.390625 C 2.554688 -3.148438 2.375 -2.820312 2.375 -2.40625 C 2.375 -1.988281 2.523438 -1.648438 2.828125 -1.390625 C 3.140625 -1.128906 3.570312 -1 4.125 -1 Z M 4.125 -1 "/></g></g></g><g fill="#936400" fill-opacity="1"><g transform="translate(291.946198, 224.443989)"><g><path d="M 1.265625 0 L 1.265625 -9 L 2.390625 -9 L 2.796875 -7.640625 C 3.046875 -8.054688 3.398438 -8.410156 3.859375 -8.703125 C 4.316406 -8.992188 4.929688 -9.140625 5.703125 -9.140625 C 6.785156 -9.140625 7.550781 -8.820312 8 -8.1875 C 8.445312 -7.550781 8.671875 -6.722656 8.671875 -5.703125 L 8.671875 0 L 7.140625 0 L 7.140625 -5.25 C 7.140625 -5.707031 7.097656 -6.128906 7.015625 -6.515625 C 6.929688 -6.910156 6.75 -7.226562 6.46875 -7.46875 C 6.1875 -7.71875 5.753906 -7.84375 5.171875 -7.84375 C 4.429688 -7.84375 3.847656 -7.585938 3.421875 -7.078125 C 3.003906 -6.578125 2.796875 -5.84375 2.796875 -4.875 L 2.796875 0 Z M 1.265625 0 "/></g></g></g></svg>