<svg xmlns="http://www.w3.org/2000/svg" xmlns:xlink="http://www.w3.org/1999/xlink" width="500" zoomAndPan="magnify" viewBox="0 0 375 374.999991" height="500" preserveAspectRatio="xMidYMid meet" version="1.0"><defs><clipPath id="581b5fcfcc"><path d="M 151 214 L 298.609375 214 L 298.609375 266 L 151 266 Z M 151 214 " clip-rule="nonzero"/></clipPath></defs><path fill="#936400" d="M 229.554688 278.796875 C 232.175781 278.015625 234.730469 277.121094 237.214844 276.121094 C 194.222656 284.628906 151.035156 259.152344 138.308594 216.300781 C 125.582031 173.449219 147.867188 128.527344 188.535156 112.191406 C 185.90625 112.710938 183.277344 113.351562 180.65625 114.128906 C 135.1875 127.632812 109.273438 175.441406 122.773438 220.914062 C 136.277344 266.382812 184.085938 292.296875 229.554688 278.796875 " fill-opacity="1" fill-rule="nonzero"/><path fill="#eab308" d="M 123.140625 256.996094 C 125.421875 258.785156 127.761719 260.441406 130.148438 261.976562 C 96.429688 230.035156 91.960938 177.078125 121.191406 139.796875 C 150.425781 102.515625 202.917969 94.222656 241.980469 119.351562 C 239.917969 117.398438 237.757812 115.519531 235.476562 113.734375 C 195.914062 82.714844 138.699219 89.636719 107.675781 129.199219 C 76.65625 168.757812 83.582031 225.976562 123.140625 256.996094 " fill-opacity="1" fill-rule="nonzero"/><g clip-path="url(#581b5fcfcc)"><path fill="#eab308" d="M 207.789062 252.839844 C 184.328125 246.53125 165.03125 232.464844 151.910156 214.148438 C 162.253906 236.992188 182.363281 255.195312 208.472656 262.210938 C 242.574219 271.378906 277.390625 258.902344 298.34375 233.191406 C 273.980469 253.265625 240.597656 261.65625 207.789062 252.839844 " fill-opacity="1" fill-rule="nonzero"/></g></svg>