<svg xmlns="http://www.w3.org/2000/svg" xmlns:xlink="http://www.w3.org/1999/xlink" width="500" zoomAndPan="magnify" viewBox="0 0 375 374.999991" height="500" preserveAspectRatio="xMidYMid meet" version="1.0"><defs><g/></defs><g fill="#936400" fill-opacity="1"><g transform="translate(92.921407, 205.58453)"><g><path d="M 33.25 -31.125 L 22.171875 -31.125 L 16.78125 0 L 9.265625 0 L 14.65625 -31.125 L 3.6875 -31.125 L 4.796875 -37.359375 L 34.359375 -37.359375 Z M 33.25 -31.125 "/></g></g></g><g fill="#936400" fill-opacity="1"><g transform="translate(122.233944, 205.58453)"><g><path d="M 19.09375 -20.8125 C 18.09375 -20.976562 17.28125 -21.0625 16.65625 -21.0625 C 14.070312 -21.132812 12.023438 -20.171875 10.515625 -18.171875 L 7.3125 0 L 0.078125 0 L 4.90625 -27.765625 L 11.703125 -27.78125 L 11.03125 -24.40625 C 12.78125 -27.019531 14.9375 -28.328125 17.5 -28.328125 C 18.21875 -28.328125 19.054688 -28.207031 20.015625 -27.96875 Z M 19.09375 -20.8125 "/></g></g></g><g fill="#936400" fill-opacity="1"><g transform="translate(138.618092, 205.58453)"><g><path d="M 16.140625 0 C 15.921875 -0.695312 15.828125 -1.535156 15.859375 -2.515625 C 13.765625 -0.429688 11.40625 0.578125 8.78125 0.515625 C 6.34375 0.484375 4.320312 -0.304688 2.71875 -1.859375 C 1.125 -3.410156 0.378906 -5.320312 0.484375 -7.59375 C 0.609375 -10.625 1.878906 -12.945312 4.296875 -14.5625 C 6.710938 -16.175781 9.957031 -16.984375 14.03125 -16.984375 L 17.421875 -16.9375 L 17.78125 -18.609375 C 17.882812 -19.171875 17.910156 -19.707031 17.859375 -20.21875 C 17.773438 -21.019531 17.472656 -21.644531 16.953125 -22.09375 C 16.429688 -22.550781 15.738281 -22.789062 14.875 -22.8125 C 13.75 -22.84375 12.789062 -22.5625 12 -21.96875 C 11.21875 -21.382812 10.71875 -20.535156 10.5 -19.421875 L 3.234375 -19.390625 C 3.347656 -22.046875 4.5625 -24.195312 6.875 -25.84375 C 9.195312 -27.5 12.0625 -28.3125 15.46875 -28.28125 C 18.613281 -28.207031 21.078125 -27.269531 22.859375 -25.46875 C 24.640625 -23.664062 25.382812 -21.34375 25.09375 -18.5 L 22.96875 -5.203125 L 22.828125 -3.5625 C 22.796875 -2.351562 22.941406 -1.328125 23.265625 -0.484375 L 23.25 0 Z M 10.578125 -5.109375 C 12.660156 -5.035156 14.476562 -5.941406 16.03125 -7.828125 L 16.9375 -12.625 L 14.421875 -12.65625 C 11.753906 -12.582031 9.828125 -11.769531 8.640625 -10.21875 C 8.210938 -9.644531 7.945312 -8.953125 7.84375 -8.140625 C 7.707031 -7.210938 7.898438 -6.476562 8.421875 -5.9375 C 8.953125 -5.394531 9.671875 -5.117188 10.578125 -5.109375 Z M 10.578125 -5.109375 "/></g></g></g><g fill="#eab308" fill-opacity="1"><g transform="translate(161.918036, 204.564068)"><g><path d="M 15.546875 -9.34375 L 28.125 -37.359375 L 36.734375 -37.359375 L 18.296875 0 L 10.4375 0 L 3.71875 -37.359375 L 11.796875 -37.359375 Z M 15.546875 -9.34375 "/></g></g></g><g fill="#eab308" fill-opacity="1"><g transform="translate(193.026666, 204.564068)"><g><path d="M 13.265625 0.515625 C 10.835938 0.492188 8.6875 -0.0976562 6.8125 -1.265625 C 4.9375 -2.441406 3.535156 -4.050781 2.609375 -6.09375 C 1.691406 -8.132812 1.335938 -10.390625 1.546875 -12.859375 L 1.609375 -13.875 C 1.867188 -16.582031 2.65625 -19.0625 3.96875 -21.3125 C 5.289062 -23.570312 6.984375 -25.3125 9.046875 -26.53125 C 11.117188 -27.757812 13.414062 -28.34375 15.9375 -28.28125 C 19.507812 -28.207031 22.210938 -26.890625 24.046875 -24.328125 C 25.890625 -21.773438 26.585938 -18.539062 26.140625 -14.625 L 25.734375 -11.46875 L 8.71875 -11.46875 C 8.65625 -9.675781 9.09375 -8.238281 10.03125 -7.15625 C 10.96875 -6.082031 12.25 -5.523438 13.875 -5.484375 C 16.507812 -5.421875 18.820312 -6.441406 20.8125 -8.546875 L 24.125 -4.4375 C 23.070312 -2.863281 21.5625 -1.632812 19.59375 -0.75 C 17.632812 0.125 15.523438 0.546875 13.265625 0.515625 Z M 15.578125 -22.296875 C 14.242188 -22.328125 13.054688 -21.90625 12.015625 -21.03125 C 10.984375 -20.164062 10.054688 -18.65625 9.234375 -16.5 L 19.1875 -16.5 L 19.34375 -17.171875 C 19.445312 -17.847656 19.457031 -18.492188 19.375 -19.109375 C 19.195312 -20.109375 18.773438 -20.882812 18.109375 -21.4375 C 17.441406 -21.988281 16.597656 -22.273438 15.578125 -22.296875 Z M 15.578125 -22.296875 "/></g></g></g><g fill="#eab308" fill-opacity="1"><g transform="translate(218.363606, 204.564068)"><g><path d="M 7.71875 0 L 0.4375 0 L 7.28125 -39.40625 L 14.546875 -39.40625 Z M 7.71875 0 "/></g></g></g><g fill="#eab308" fill-opacity="1"><g transform="translate(229.668943, 204.564068)"><g><path d="M 7.71875 0 L 0.4375 0 L 5.265625 -27.765625 L 12.546875 -27.765625 Z M 6.109375 -34.8125 C 6.078125 -35.957031 6.453125 -36.90625 7.234375 -37.65625 C 8.023438 -38.414062 8.972656 -38.796875 10.078125 -38.796875 C 11.171875 -38.828125 12.117188 -38.488281 12.921875 -37.78125 C 13.734375 -37.082031 14.15625 -36.179688 14.1875 -35.078125 C 14.21875 -34.015625 13.859375 -33.085938 13.109375 -32.296875 C 12.367188 -31.515625 11.40625 -31.109375 10.21875 -31.078125 C 9.132812 -31.035156 8.1875 -31.359375 7.375 -32.046875 C 6.5625 -32.734375 6.140625 -33.65625 6.109375 -34.8125 Z M 6.109375 -34.8125 "/></g></g></g><g fill="#eab308" fill-opacity="1"><g transform="translate(240.974286, 204.564068)"><g><path d="M 13.4375 -19.53125 L 19.265625 -27.765625 L 27.40625 -27.765625 L 17.34375 -13.796875 L 22.96875 0 L 15.625 0 L 12.21875 -8.671875 L 6.078125 0 L -2.109375 0 L 8.359375 -14.515625 L 3 -27.765625 L 10.34375 -27.765625 Z M 13.4375 -19.53125 "/></g></g></g></svg>